<?xml version="1.0" standalone="no"?>
<!DOCTYPE svg PUBLIC "-//W3C//DTD SVG 20010904//EN"
 "http://www.w3.org/TR/2001/REC-SVG-20010904/DTD/svg10.dtd">
<svg version="1.0" xmlns="http://www.w3.org/2000/svg"
 width="320.000000pt" height="320.000000pt" viewBox="0 0 320.000000 320.000000"
 preserveAspectRatio="xMidYMid meet">
<metadata>
Created by potrace 1.14, written by Peter Selinger 2001-2017
</metadata>
<g transform="translate(0.000000,320.000000) scale(0.100000,-0.100000)"
fill="#000000" stroke="none">
<path d="M624 2876 c-1 -6 -2 -144 -1 -306 l2 -295 303 0 c166 0 302 2 303 5
1 3 3 27 5 54 5 58 30 158 51 206 54 118 182 262 283 316 23 12 44 24 46 26 2
3 -219 4 -492 4 -340 0 -497 -3 -500 -10z"/>
<path d="M1857 2884 c-1 -1 -22 -4 -47 -7 -73 -10 -199 -56 -228 -84 -8 -7
-23 -18 -34 -24 -65 -35 -158 -153 -207 -262 -17 -37 -28 -67 -26 -67 2 0 -1
-15 -7 -32 -7 -22 -11 -371 -12 -1061 l-2 -1027 90 0 c292 -2 510 1 515 6 3 3
6 443 6 977 l0 972 335 0 335 0 0 305 0 305 -358 1 c-196 0 -358 0 -360 -2z"/>
</g>
</svg>
