<svg xmlns="http://www.w3.org/2000/svg" width="32" height="32" viewBox="0 0 24 24" fill-rule="evenodd" clip-rule="evenodd" fill="#0f0f13"><path d="M4.68 2.43c-.007.045-.015 1.08-.007 2.295l.015 2.212H6.96c1.245 0 2.265-.015 2.272-.037s.022-.202.037-.405c.037-.435.225-1.185.382-1.545.405-.885 1.365-1.965 2.122-2.37.172-.09.33-.18.345-.195.015-.022-1.642-.03-3.69-.03-2.55 0-3.727.022-3.75.075"/><path d="M13.927 2.37c-.007.007-.165.03-.352.052-.547.075-1.492.42-1.71.63-.06.052-.172.135-.255.18-.487.262-1.185 1.147-1.552 1.965-.127.277-.21.502-.195.502s-.007.112-.052.24c-.052.165-.082 2.782-.09 7.957l-.015 7.702h.675c2.19.015 3.825-.007 3.862-.045.022-.022.045-3.322.045-7.327V6.937h5.025V2.362l-2.685-.007c-1.47 0-2.685 0-2.7.015"/></svg>
